<svg width="80" height="80" viewBox="0 0 80 80" fill="none" xmlns="http://www.w3.org/2000/svg" xmlns:xlink="http://www.w3.org/1999/xlink">
<path d="M13.333,40L10.505,37.172L7.676,40L10.505,42.828L13.333,40ZM46.667,44C48.876,44 50.667,42.209 50.667,40C50.667,37.791 48.876,36 46.667,36L46.667,44ZM30.505,17.172L10.505,37.172L16.162,42.828L36.162,22.828L30.505,17.172ZM10.505,42.828L30.505,62.828L36.162,57.172L16.162,37.172L10.505,42.828ZM13.333,44L46.667,44L46.667,36L13.333,36L13.333,44Z" transform="rotate(360 30 40)" fill="#33363F"/>
<line x1="62.667" y1="16.667" x2="62.667" y2="63.333" stroke="#33363F" stroke-width="4" stroke-miterlimit="3.999327"/>
</svg>
