<svg width="160" height="166" viewBox="0 0 160 166" fill="none" xmlns="http://www.w3.org/2000/svg" xmlns:xlink="http://www.w3.org/1999/xlink">
<path d="M26.666,27.814C24.457,27.814 22.666,29.605 22.666,31.814C22.666,34.024 24.457,35.814 26.666,35.814L26.666,27.814ZM66.666,63.479C68.875,63.479 70.666,61.688 70.666,59.479C70.666,57.27 68.875,55.479 66.666,55.479L66.666,63.479ZM54.684,57.764L57.159,54.621L54.684,57.764ZM49.618,44.066L45.73,45.003L49.618,44.066ZM45.315,33.53L42.84,36.672L45.315,33.53ZM26.666,35.814L34.064,35.814L34.064,27.814L26.666,27.814L26.666,35.814ZM45.73,45.003L46.492,48.165L54.269,46.29L53.507,43.129L45.73,45.003ZM65.935,63.479L66.666,63.479L66.666,55.479L65.935,55.479L65.935,63.479ZM46.492,48.165C47.177,51.01 47.768,53.49 48.498,55.452C49.265,57.515 50.329,59.425 52.209,60.906L57.159,54.621C56.861,54.387 56.482,53.969 55.996,52.663C55.472,51.256 55,49.326 54.269,46.29L46.492,48.165ZM65.935,55.479C62.813,55.479 60.826,55.472 59.335,55.293C57.951,55.127 57.457,54.856 57.159,54.621L52.209,60.906C54.089,62.387 56.195,62.973 58.381,63.236C60.459,63.486 63.008,63.479 65.935,63.479L65.935,55.479ZM34.064,35.814C37.186,35.814 39.173,35.821 40.664,36C42.047,36.166 42.542,36.438 42.84,36.672L47.79,30.387C45.91,28.907 43.804,28.32 41.618,28.057C39.54,27.808 36.99,27.814 34.064,27.814L34.064,35.814ZM53.507,43.129C52.821,40.284 52.231,37.803 51.501,35.842C50.734,33.779 49.67,31.868 47.79,30.387L42.84,36.672C43.138,36.907 43.517,37.324 44.003,38.63C44.526,40.038 44.998,41.968 45.73,45.003L53.507,43.129Z" fill="#000000"/>
<path d="M120,119.5C122.209,119.5 124,117.709 124,115.5C124,113.291 122.209,111.5 120,111.5L120,119.5ZM93.333,98.751C95.542,98.751 97.333,96.961 97.333,94.751C97.333,92.542 95.542,90.751 93.333,90.751L93.333,98.751ZM45.47,98.931L41.956,97.021L45.47,98.931ZM51.012,94.891L50.269,90.961L51.012,94.891ZM48.768,115.19L49.871,111.345L48.768,115.19ZM42.977,107.247L46.975,107.373L42.977,107.247ZM120,111.5L54.23,111.5L54.23,119.5L120,119.5L120,111.5ZM54.23,98.751L93.333,98.751L93.333,90.751L54.23,90.751L54.23,98.751ZM48.161,103.176C48.718,101.443 48.849,101.091 48.985,100.841L41.956,97.021C41.375,98.089 41,99.312 40.545,100.729L48.161,103.176ZM54.23,90.751C52.742,90.751 51.463,90.735 50.269,90.961L51.756,98.821C52.035,98.768 52.41,98.751 54.23,98.751L54.23,90.751ZM48.985,100.841C49.558,99.786 50.575,99.044 51.756,98.821L50.269,90.961C46.728,91.63 43.676,93.855 41.956,97.021L48.985,100.841ZM54.23,111.5C51,111.5 50.268,111.459 49.871,111.345L47.666,119.035C49.43,119.541 51.619,119.5 54.23,119.5L54.23,111.5ZM40.545,100.729C39.746,103.214 39.037,105.286 38.979,107.12L46.975,107.373C46.988,106.96 47.173,106.251 48.161,103.176L40.545,100.729ZM49.871,111.345C48.11,110.84 46.917,109.204 46.975,107.373L38.979,107.12C38.805,112.612 42.384,117.521 47.666,119.035L49.871,111.345Z" fill="#000000"/>
<path d="M110.821,96.826L56.742,96.826C54.778,96.826 53.105,95.4 52.793,93.461L47.412,59.964C47.021,57.533 48.899,55.329 51.361,55.329L126.965,55.329C129.914,55.329 131.849,58.41 130.569,61.066L114.425,94.563C113.758,95.947 112.357,96.826 110.821,96.826Z" fill="#000000" stroke="#000000" stroke-width="2" stroke-miterlimit="3.999327" stroke-linecap="round"/>
<path d="M120,138.323C120,142.143 117.016,145.24 113.334,145.24C109.652,145.24 106.667,142.143 106.667,138.323C106.667,134.504 109.652,131.407 113.334,131.407C117.016,131.407 120,134.504 120,138.323Z" fill="#000000"/>
<path d="M66.666,138.323C66.666,142.143 63.682,145.24 60,145.24C56.318,145.24 53.333,142.143 53.333,138.323C53.333,134.504 56.318,131.407 60,131.407C63.682,131.407 66.666,134.504 66.666,138.323Z" fill="#000000"/>
</svg>
