<svg width="160" height="166" viewBox="0 0 160 166" fill="none" xmlns="http://www.w3.org/2000/svg" xmlns:xlink="http://www.w3.org/1999/xlink">
<path d="M26.666,26.82C24.457,26.82 22.666,28.611 22.666,30.82C22.666,33.03 24.457,34.82 26.666,34.82L26.666,26.82ZM66.666,62.485C68.875,62.485 70.666,60.694 70.666,58.485C70.666,56.276 68.875,54.485 66.666,54.485L66.666,62.485ZM54.684,56.77L57.159,53.627L54.684,56.77ZM49.618,43.072L45.73,44.009L49.618,43.072ZM45.315,32.536L42.84,35.678L45.315,32.536ZM26.666,34.82L34.064,34.82L34.064,26.82L26.666,26.82L26.666,34.82ZM45.73,44.009L46.492,47.171L54.269,45.296L53.507,42.135L45.73,44.009ZM65.935,62.485L66.666,62.485L66.666,54.485L65.935,54.485L65.935,62.485ZM46.492,47.171C47.177,50.016 47.768,52.496 48.498,54.458C49.265,56.521 50.329,58.431 52.209,59.912L57.159,53.627C56.861,53.393 56.482,52.975 55.996,51.669C55.472,50.262 55,48.332 54.269,45.296L46.492,47.171ZM65.935,54.485C62.813,54.485 60.826,54.478 59.335,54.299C57.951,54.133 57.457,53.862 57.159,53.627L52.209,59.912C54.089,61.393 56.195,61.979 58.381,62.242C60.459,62.492 63.008,62.485 65.935,62.485L65.935,54.485ZM34.064,34.82C37.186,34.82 39.173,34.827 40.664,35.006C42.047,35.172 42.542,35.443 42.84,35.678L47.79,29.393C45.91,27.913 43.804,27.326 41.618,27.063C39.54,26.814 36.99,26.82 34.064,26.82L34.064,34.82ZM53.507,42.135C52.821,39.29 52.231,36.809 51.501,34.848C50.734,32.784 49.67,30.874 47.79,29.393L42.84,35.678C43.138,35.913 43.517,36.33 44.003,37.636C44.526,39.044 44.998,40.974 45.73,44.009L53.507,42.135Z" fill="#000000"/>
<path d="M120,118.506C122.209,118.506 124,116.715 124,114.506C124,112.297 122.209,110.506 120,110.506L120,118.506ZM93.333,97.757C95.542,97.757 97.333,95.967 97.333,93.757C97.333,91.548 95.542,89.757 93.333,89.757L93.333,97.757ZM45.47,97.937L41.956,96.027L45.47,97.937ZM51.012,93.897L50.269,89.967L51.012,93.897ZM48.768,114.196L49.871,110.351L48.768,114.196ZM42.977,106.253L46.975,106.379L42.977,106.253ZM120,110.506L54.23,110.506L54.23,118.506L120,118.506L120,110.506ZM54.23,97.757L93.333,97.757L93.333,89.757L54.23,89.757L54.23,97.757ZM48.161,102.182C48.718,100.449 48.849,100.097 48.985,99.847L41.956,96.027C41.375,97.095 41,98.318 40.545,99.735L48.161,102.182ZM54.23,89.757C52.742,89.757 51.463,89.741 50.269,89.967L51.756,97.827C52.035,97.774 52.41,97.757 54.23,97.757L54.23,89.757ZM48.985,99.847C49.558,98.792 50.575,98.05 51.756,97.827L50.269,89.967C46.728,90.636 43.676,92.861 41.956,96.027L48.985,99.847ZM54.23,110.506C51,110.506 50.268,110.465 49.871,110.351L47.666,118.041C49.43,118.547 51.619,118.506 54.23,118.506L54.23,110.506ZM40.545,99.735C39.746,102.22 39.037,104.292 38.979,106.126L46.975,106.379C46.988,105.966 47.173,105.257 48.161,102.182L40.545,99.735ZM49.871,110.351C48.11,109.846 46.917,108.21 46.975,106.379L38.979,106.126C38.805,111.618 42.384,116.527 47.666,118.041L49.871,110.351Z" fill="#000000"/>
<path d="M110.821,95.832L56.742,95.832C54.778,95.832 53.105,94.406 52.793,92.467L47.412,58.97C47.021,56.539 48.899,54.335 51.361,54.335L126.965,54.335C129.914,54.335 131.849,57.416 130.569,60.072L114.425,93.569C113.758,94.953 112.357,95.832 110.821,95.832Z" fill="#000000" stroke="#000000" stroke-width="2" stroke-miterlimit="3.999327" stroke-linecap="round"/>
<path d="M120,137.329C120,141.149 117.016,144.246 113.334,144.246C109.652,144.246 106.667,141.149 106.667,137.329C106.667,133.51 109.652,130.413 113.334,130.413C117.016,130.413 120,133.51 120,137.329Z" fill="#000000"/>
<path d="M66.666,137.329C66.666,141.149 63.682,144.246 60,144.246C56.318,144.246 53.333,141.149 53.333,137.329C53.333,133.51 56.318,130.413 60,130.413C63.682,130.413 66.666,133.51 66.666,137.329Z" fill="#000000"/>
</svg>
