<svg width="160" height="166" viewBox="0 0 160 166" fill="none" xmlns="http://www.w3.org/2000/svg" xmlns:xlink="http://www.w3.org/1999/xlink">
<path d="M26.667,27.814C24.457,27.814 22.667,29.605 22.667,31.814C22.667,34.024 24.457,35.814 26.667,35.814L26.667,27.814ZM66.667,63.479C68.876,63.479 70.667,61.688 70.667,59.479C70.667,57.27 68.876,55.479 66.667,55.479L66.667,63.479ZM54.684,57.764L57.159,54.621L54.684,57.764ZM49.619,44.066L45.73,45.003L49.619,44.066ZM45.315,33.53L42.84,36.672L45.315,33.53ZM26.667,35.814L34.064,35.814L34.064,27.814L26.667,27.814L26.667,35.814ZM45.73,45.003L46.492,48.165L54.27,46.29L53.508,43.129L45.73,45.003ZM65.936,63.479L66.667,63.479L66.667,55.479L65.936,55.479L65.936,63.479ZM46.492,48.165C47.178,51.01 47.769,53.49 48.498,55.452C49.266,57.515 50.329,59.425 52.209,60.906L57.159,54.621C56.862,54.387 56.482,53.969 55.996,52.663C55.473,51.256 55.001,49.326 54.27,46.29L46.492,48.165ZM65.936,55.479C62.813,55.479 60.826,55.472 59.336,55.293C57.952,55.127 57.457,54.856 57.159,54.621L52.209,60.906C54.089,62.387 56.196,62.973 58.381,63.236C60.459,63.486 63.009,63.479 65.936,63.479L65.936,55.479ZM34.064,35.814C37.187,35.814 39.173,35.821 40.664,36C42.048,36.166 42.543,36.438 42.84,36.672L47.791,30.387C45.91,28.907 43.804,28.32 41.619,28.057C39.541,27.808 36.991,27.814 34.064,27.814L34.064,35.814ZM53.508,43.129C52.822,40.284 52.231,37.803 51.502,35.842C50.734,33.779 49.671,31.868 47.791,30.387L42.84,36.672C43.138,36.907 43.518,37.324 44.003,38.63C44.527,40.038 44.999,41.968 45.73,45.003L53.508,43.129Z" fill="#000000"/>
<path d="M120,119.5C122.209,119.5 124,117.709 124,115.5C124,113.291 122.209,111.5 120,111.5L120,119.5ZM93.333,98.751C95.542,98.751 97.333,96.961 97.333,94.751C97.333,92.542 95.542,90.751 93.333,90.751L93.333,98.751ZM45.47,98.931L41.956,97.021L45.47,98.931ZM51.012,94.891L50.269,90.961L51.012,94.891ZM48.768,115.19L49.871,111.345L48.768,115.19ZM42.977,107.247L46.975,107.373L42.977,107.247ZM120,111.5L54.23,111.5L54.23,119.5L120,119.5L120,111.5ZM54.23,98.751L93.333,98.751L93.333,90.751L54.23,90.751L54.23,98.751ZM48.161,103.176C48.718,101.443 48.849,101.091 48.985,100.841L41.956,97.021C41.375,98.089 41,99.312 40.545,100.729L48.161,103.176ZM54.23,90.751C52.742,90.751 51.463,90.735 50.269,90.961L51.756,98.821C52.035,98.768 52.41,98.751 54.23,98.751L54.23,90.751ZM48.985,100.841C49.558,99.786 50.575,99.044 51.756,98.821L50.269,90.961C46.728,91.63 43.676,93.855 41.956,97.021L48.985,100.841ZM54.23,111.5C51,111.5 50.268,111.459 49.871,111.345L47.666,119.035C49.43,119.541 51.619,119.5 54.23,119.5L54.23,111.5ZM40.545,100.729C39.746,103.214 39.037,105.286 38.979,107.12L46.975,107.373C46.988,106.96 47.173,106.251 48.161,103.176L40.545,100.729ZM49.871,111.345C48.11,110.84 46.917,109.204 46.975,107.373L38.979,107.12C38.805,112.612 42.384,117.521 47.666,119.035L49.871,111.345Z" fill="#000000"/>
<path d="M110.821,96.826L56.742,96.826C54.778,96.826 53.104,95.4 52.792,93.461L47.411,59.964C47.02,57.533 48.898,55.329 51.36,55.329L126.965,55.329C129.913,55.329 131.848,58.41 130.568,61.066L114.424,94.563C113.757,95.947 112.357,96.826 110.821,96.826Z" fill="#000000" stroke="#000000" stroke-width="2" stroke-miterlimit="3.999327" stroke-linecap="round"/>
<path d="M120,138.323C120,142.143 117.015,145.24 113.333,145.24C109.651,145.24 106.667,142.143 106.667,138.323C106.667,134.504 109.651,131.407 113.333,131.407C117.015,131.407 120,134.504 120,138.323Z" fill="#000000"/>
<path d="M66.667,138.323C66.667,142.143 63.682,145.24 60,145.24C56.318,145.24 53.333,142.143 53.333,138.323C53.333,134.504 56.318,131.407 60,131.407C63.682,131.407 66.667,134.504 66.667,138.323Z" fill="#000000"/>
</svg>
