<svg width="560" height="560" viewBox="0 0 560 560" fill="none" xmlns="http://www.w3.org/2000/svg" xmlns:xlink="http://www.w3.org/1999/xlink">
<circle cx="280" cy="280" r="210" stroke="#09A719" stroke-width="16" stroke-miterlimit="3.999327"/>
<path d="M268.686,362.02C262.438,368.268 262.438,378.399 268.686,384.647C274.934,390.895 285.065,390.895 291.313,384.647L268.686,362.02ZM220.243,174.375C213.454,168.718 203.365,169.635 197.708,176.424C192.051,183.212 192.968,193.301 199.757,198.958L220.243,174.375ZM291.313,384.647L345.827,330.133L323.2,307.506L268.686,362.02L291.313,384.647ZM343.418,277.021L220.243,174.375L199.757,198.958L322.932,301.604L343.418,277.021ZM345.827,330.133C360.796,315.164 359.681,290.573 343.418,277.021L322.932,301.604C324.739,303.11 324.863,305.842 323.2,307.506L345.827,330.133Z" transform="rotate(180 280 280)" fill="#09A719"/>
</svg>
