<svg width="64" height="58" viewBox="0 0 64 58" fill="none" xmlns="http://www.w3.org/2000/svg" xmlns:xlink="http://www.w3.org/1999/xlink">
<path d="M41.333,56.667C42.438,56.667 43.333,55.771 43.333,54.667C43.333,53.562 42.438,52.667 41.333,52.667L41.333,56.667ZM49.333,29.667C49.333,30.771 50.229,31.667 51.333,31.667C52.438,31.667 53.333,30.771 53.333,29.667L49.333,29.667ZM49.149,8.436L50.057,6.654L49.149,8.436ZM50.897,10.184L52.679,9.276L50.897,10.184ZM2.425,54.449L3.333,52.667L2.425,54.449ZM1.551,53.575L3.333,52.667L1.551,53.575ZM28.723,7.89L28.256,9.834L28.723,7.89ZM26.125,6.126L24.711,7.54L26.125,6.126ZM27.567,7.411L28.612,5.705L27.567,7.411ZM20.61,1.444L20.143,3.389L20.61,1.444ZM23.208,3.208L21.794,4.622L23.208,3.208ZM21.766,1.923L20.721,3.628L21.766,1.923ZM1.769,3.518L-0.013,2.61L1.769,3.518ZM3.517,1.769L2.609,-0.013L3.517,1.769ZM41.333,52.667L4.533,52.667L4.533,56.667L41.333,56.667L41.333,52.667ZM3.333,51.467L3.333,7.733L-0.667,7.733L-0.667,51.467L3.333,51.467ZM30.651,10L44.933,10L44.933,6L30.651,6L30.651,10ZM7.733,3.333L18.682,3.333L18.682,-0.667L7.733,-0.667L7.733,3.333ZM21.794,4.622L24.711,7.54L27.54,4.711L24.622,1.794L21.794,4.622ZM49.333,14.4L49.333,29.667L53.333,29.667L53.333,14.4L49.333,14.4ZM44.933,10C46.086,10 46.831,10.002 47.398,10.048C47.941,10.092 48.142,10.168 48.241,10.218L50.057,6.654C49.3,6.269 48.514,6.126 47.723,6.061C46.956,5.999 46.02,6 44.933,6L44.933,10ZM53.333,14.4C53.333,13.313 53.335,12.377 53.272,11.61C53.207,10.819 53.065,10.033 52.679,9.276L49.115,11.092C49.166,11.191 49.241,11.393 49.285,11.936C49.332,12.503 49.333,13.247 49.333,14.4L53.333,14.4ZM48.241,10.218C48.618,10.41 48.923,10.716 49.115,11.092L52.679,9.276C52.104,8.147 51.186,7.229 50.057,6.654L48.241,10.218ZM4.533,52.667C3.94,52.667 3.616,52.665 3.383,52.646C3.173,52.629 3.218,52.608 3.333,52.667L1.517,56.231C2.06,56.507 2.6,56.595 3.057,56.633C3.491,56.668 4.006,56.667 4.533,56.667L4.533,52.667ZM-0.667,51.467C-0.667,51.994 -0.668,52.509 -0.633,52.943C-0.596,53.4 -0.507,53.94 -0.231,54.483L3.333,52.667C3.392,52.782 3.371,52.827 3.354,52.617C3.335,52.384 3.333,52.06 3.333,51.467L-0.667,51.467ZM3.333,52.667L3.333,52.667L-0.231,54.483C0.153,55.235 0.765,55.847 1.517,56.231L3.333,52.667ZM30.651,6C29.577,6 29.366,5.987 29.19,5.945L28.256,9.834C29,10.013 29.768,10 30.651,10L30.651,6ZM24.711,7.54C25.336,8.164 25.869,8.716 26.522,9.116L28.612,5.705C28.457,5.611 28.299,5.471 27.54,4.711L24.711,7.54ZM29.19,5.945C28.986,5.896 28.791,5.815 28.612,5.705L26.522,9.116C27.059,9.445 27.644,9.687 28.256,9.834L29.19,5.945ZM18.682,3.333C19.756,3.333 19.967,3.346 20.143,3.389L21.077,-0.501C20.333,-0.679 19.565,-0.667 18.682,-0.667L18.682,3.333ZM24.622,1.794C23.997,1.169 23.464,0.617 22.811,0.218L20.721,3.628C20.876,3.723 21.034,3.863 21.794,4.622L24.622,1.794ZM20.143,3.389C20.347,3.438 20.542,3.519 20.721,3.628L22.811,0.218C22.275,-0.111 21.689,-0.354 21.077,-0.501L20.143,3.389ZM3.333,7.733C3.333,6.58 3.335,5.836 3.381,5.269C3.425,4.726 3.501,4.524 3.551,4.426L-0.013,2.61C-0.398,3.366 -0.541,4.153 -0.606,4.943C-0.668,5.711 -0.667,6.646 -0.667,7.733L3.333,7.733ZM7.733,-0.667C6.646,-0.667 5.711,-0.668 4.943,-0.605C4.153,-0.541 3.366,-0.398 2.609,-0.013L4.425,3.551C4.524,3.501 4.726,3.426 5.269,3.381C5.836,3.335 6.58,3.333 7.733,3.333L7.733,-0.667ZM3.551,4.426C3.743,4.049 4.049,3.743 4.425,3.551L2.609,-0.013C1.48,0.563 0.562,1.481 -0.013,2.61L3.551,4.426Z" fill="#222222"/>
<path d="M9.801,25.546L9.801,25.546L2.684,45.118C1.108,49.451 0.32,51.618 0.72,53.35C1.07,54.864 1.995,56.184 3.299,57.031C4.789,57.999 7.095,57.999 11.706,57.999L46.851,57.999C48.466,57.999 49.273,57.999 49.965,57.733C50.577,57.498 51.121,57.117 51.551,56.622C52.037,56.063 52.313,55.304 52.865,53.786L62.325,27.774C63.112,25.607 63.506,24.524 63.306,23.658C63.131,22.901 62.669,22.241 62.017,21.817C61.272,21.333 60.119,21.333 57.814,21.333L15.816,21.333C14.201,21.333 13.393,21.333 12.701,21.599C12.09,21.834 11.545,22.215 11.116,22.71C10.629,23.27 10.353,24.028 9.801,25.546ZM21.333,36C20.229,36 19.333,36.896 19.333,38C19.333,39.105 20.229,40 21.333,40L44.667,40C45.771,40 46.667,39.105 46.667,38C46.667,36.896 45.771,36 44.667,36L21.333,36Z" clip-rule="evenodd" fill-rule="evenodd" fill="#222222"/>
</svg>
