<svg width="560" height="560" viewBox="0 0 560 560" fill="none" xmlns="http://www.w3.org/2000/svg" xmlns:xlink="http://www.w3.org/1999/xlink">
<circle cx="280" cy="280" r="210" stroke="#FF0000" stroke-width="16" stroke-miterlimit="3.999327"/>
<path d="M181.007,263.992C172.17,263.992 165.007,271.156 165.007,279.992C165.007,288.829 172.17,295.992 181.007,295.992L181.007,263.992ZM378.997,295.992C387.833,295.992 394.997,288.829 394.997,279.992C394.997,271.156 387.833,263.992 378.997,263.992L378.997,295.992ZM181.007,295.992L378.997,295.992L378.997,263.992L181.007,263.992L181.007,295.992Z" transform="rotate(-90 280.002 279.992)" fill="#FF0000"/>
<path d="M181.005,264C172.168,264 165.005,271.163 165.005,280C165.005,288.837 172.168,296 181.005,296L181.005,264ZM378.995,296C387.831,296 394.995,288.837 394.995,280C394.995,271.163 387.831,264 378.995,264L378.995,296ZM181.005,296L378.995,296L378.995,264L181.005,264L181.005,296Z" transform="rotate(-270 280 280)" fill="#FF0000"/>
</svg>
