<svg width="80" height="80" viewBox="0 0 80 80" fill="none" xmlns="http://www.w3.org/2000/svg" xmlns:xlink="http://www.w3.org/1999/xlink">
<line x1="36.667" y1="22.667" x2="66.667" y2="22.667" stroke="#000000" stroke-width="4" stroke-miterlimit="3.999327" stroke-linecap="round"/>
<line x1="13.333" y1="49.333" x2="46.667" y2="49.333" stroke="#000000" stroke-width="4" stroke-miterlimit="3.999327" stroke-linecap="round"/>
<path d="M29.333,26.667C29.333,29.98 26.647,32.667 23.333,32.667L23.333,40.667C31.065,40.667 37.333,34.399 37.333,26.667L29.333,26.667ZM23.333,32.667C20.02,32.667 17.333,29.98 17.333,26.667L9.333,26.667C9.333,34.399 15.602,40.667 23.333,40.667L23.333,32.667ZM17.333,26.667C17.333,23.353 20.02,20.667 23.333,20.667L23.333,12.667C15.602,12.667 9.333,18.935 9.333,26.667L17.333,26.667ZM23.333,20.667C26.647,20.667 29.333,23.353 29.333,26.667L37.333,26.667C37.333,18.935 31.065,12.667 23.333,12.667L23.333,20.667Z" transform="rotate(180 23.333 26.667)" fill="#000000"/>
<path d="M62.667,53.333C62.667,56.647 59.98,59.333 56.667,59.333L56.667,67.333C64.398,67.333 70.667,61.065 70.667,53.333L62.667,53.333ZM56.667,59.333C53.353,59.333 50.667,56.647 50.667,53.333L42.667,53.333C42.667,61.065 48.935,67.333 56.667,67.333L56.667,59.333ZM50.667,53.333C50.667,50.02 53.353,47.333 56.667,47.333L56.667,39.333C48.935,39.333 42.667,45.601 42.667,53.333L50.667,53.333ZM56.667,47.333C59.98,47.333 62.667,50.02 62.667,53.333L70.667,53.333C70.667,45.601 64.398,39.333 56.667,39.333L56.667,47.333Z" transform="rotate(180 56.667 53.333)" fill="#000000"/>
</svg>
