<svg width="122" height="120" viewBox="0 0 122 120" fill="none" xmlns="http://www.w3.org/2000/svg" xmlns:xlink="http://www.w3.org/1999/xlink">
<path d="M120.011,60.002C120.011,90.306 97.555,115.359 68.382,119.424C65.655,119.802 62.864,120 60.031,120C56.761,120 53.55,119.739 50.423,119.235C21.864,114.635 0.051,89.864 0.051,60.002C0.051,26.865 26.908,0 60.035,0C93.163,0 120.02,26.865 120.02,60.002L120.011,60.002Z" fill="#383D38"/>
<path d="M68.382,48.18L68.382,61.25L84.547,61.25L81.987,78.858L68.382,78.858L68.382,119.424C65.655,119.802 62.864,120 60.031,120C56.761,120 53.55,119.739 50.423,119.235L50.423,78.858L35.515,78.858L35.515,61.25L50.423,61.25L50.423,45.258C50.423,35.336 58.463,27.289 68.387,27.289L68.387,27.297C68.416,27.297 68.441,27.289 68.471,27.289L84.551,27.289L84.551,42.517L74.044,42.517C70.921,42.517 68.387,45.052 68.387,48.175L68.382,48.18Z" fill="#FFFFFF"/>
</svg>
