<svg width="1000" height="964" viewBox="0 0 1000 964" fill="none" xmlns="http://www.w3.org/2000/svg" xmlns:xlink="http://www.w3.org/1999/xlink">
<path d="M340.404,759.546C349.506,756.323 358.831,753.768 368.305,751.902L369.451,756.106C369.58,756.602 369.882,757.035 370.303,757.325C370.724,757.616 371.236,757.745 371.745,757.69L409.255,753.322C419.574,729.789 438.521,694.135 438.794,693.589C438.521,684.69 438.794,677.209 438.794,668.692C417.336,676.663 377.642,691.788 356.894,701.452C356.424,701.754 356.062,702.196 355.856,702.715C355.65,703.234 355.612,703.804 355.747,704.346C355.747,704.346 356.129,705.711 356.621,707.676C346.465,707.676 316.053,706.202 308.736,713.136C307.599,714.721 307.04,716.649 307.153,718.596C306.716,726.131 310.484,784.662 316.49,801.861C319.602,810.87 326.154,809.887 330.631,801.261C335.813,788.269 339.14,774.612 340.514,760.693C340.514,759.983 340.35,760.038 340.404,759.546ZM334.125,710.679C340.787,710.133 342.861,710.242 357.166,709.806C359.733,719.524 365.029,739.508 367.759,749.718C358.126,751.21 348.617,753.419 339.312,756.325C336.413,741.265 334.679,726.005 334.125,710.679Z" fill="#000000"/>
<path d="M842.943,232.819C844.309,230.908 842.561,228.451 841.087,226.54C845.263,222.245 849.895,218.419 854.901,215.129C863.349,210.919 871.071,205.39 877.777,198.749C880.563,195.855 885.805,189.904 883.839,186.409C881.873,182.915 878.379,182.697 873.629,184.717C875.687,182.556 877.367,180.064 878.597,177.346C880.125,173.087 876.523,169.647 868.715,172.814C871.553,168.282 872.209,163.532 867.403,161.239C863.527,159.382 857.849,163.805 854.573,166.699C848.141,172.319 842.101,178.376 836.501,184.826C833.061,177.619 827.601,169.32 820.775,171.94C813.951,174.561 819.247,186.3 822.741,192.688L810.347,201.261C808.473,200.249 806.357,199.777 804.231,199.896C790.145,202.298 725.443,251.547 718.891,251.547C713.869,251.547 642.125,217.149 580.099,207.212C579.979,206.84 579.757,206.509 579.457,206.258C579.157,206.007 578.793,205.846 578.407,205.792C567.587,203.946 556.619,203.124 545.647,203.335C545.313,203.358 544.989,203.452 544.697,203.613C544.405,203.773 544.151,203.995 543.953,204.264L539.367,204.264C538.275,199.841 534.235,189.631 532.815,185.7C536.527,182.478 541.661,180.84 544.335,175.653C549.249,166.044 549.031,149.336 547.667,138.634C553.837,133.939 553.999,126.404 552.581,118.705C552.035,115.593 550.341,108.55 547.721,106.803C546.247,105.82 543.135,106.803 540.459,107.785C537.783,101.561 537.783,104.4 538.875,101.889C539.383,100.731 539.679,99.492 539.749,98.23C542.643,99.104 548.649,93.316 546.575,85.672C545.487,82.936 544.153,80.304 542.589,77.81C543.353,75.954 544.991,73.715 539.859,66.89C537.649,64.506 534.779,62.833 531.613,62.085L529.103,62.085C527.291,59.455 524.631,57.527 521.567,56.625C516.943,55.446 512.041,56.132 507.917,58.536C506.825,59.355 505.951,60.447 504.859,61.212C502.391,59.712 499.559,58.92 496.669,58.92C493.781,58.92 490.949,59.712 488.479,61.212C487.035,61.779 485.719,62.632 484.611,63.72C483.505,64.809 482.629,66.11 482.037,67.545C479.361,66.622 476.523,66.267 473.703,66.502C470.883,66.737 468.143,67.557 465.657,68.91C456.225,74.025 449.169,82.628 446.001,92.88C445.913,94.425 445.913,95.975 446.001,97.521L445.401,97.521C437.211,96.319 426.782,115.757 435.135,130.881C436.118,132.683 437.375,134.376 438.575,136.341C442.069,141.801 440.705,143.439 448.513,150.1C450.805,152.066 451.189,151.902 452.607,153.103C454.027,154.305 453.481,153.704 454.301,156.762C454.747,158.563 455.547,160.257 456.653,161.748C457.757,163.238 459.149,164.494 460.743,165.443C461.323,170.784 463.601,175.797 467.241,179.748C468.393,181.038 469.737,182.143 471.227,183.024C471.627,183.25 472.077,183.381 472.537,183.406C474.175,193.562 476.195,206.775 477.069,212.399L472.209,215.02C465.851,217.578 459.669,220.551 453.699,223.92C453.231,224.244 452.901,224.73 452.771,225.285C446.983,228.342 441.523,231.236 438.411,233.092C395.059,258.809 271.936,428.341 270.68,436.095C270.542,436.539 270.542,437.015 270.68,437.459C272.445,440.275 274.595,442.829 277.068,445.049C276.306,446.439 275.39,447.739 274.338,448.925C263.418,456.079 247.038,466.725 238.248,476.225C237.631,476.775 237.169,477.477 236.906,478.259C236.643,479.043 236.589,479.881 236.749,480.691C236.908,481.501 237.277,482.255 237.817,482.881C238.358,483.505 239.052,483.977 239.831,484.251C241.469,484.797 241.742,484.635 252.389,478.791C249.463,481.359 247.07,484.475 245.346,487.965C244.636,490.967 247.366,492.715 250.806,492.169C252.741,491.661 254.584,490.851 256.266,489.767C255.281,491.287 254.757,493.061 254.757,494.871C254.757,496.683 255.281,498.457 256.266,499.977C261.726,506.857 276.031,485.181 283.566,479.829C286.623,483.705 290.773,492.769 297.379,490.367C303.112,488.237 296.833,475.625 297.379,471.967C299.601,469.833 301.973,467.863 304.477,466.071C308.689,469.193 313.505,471.407 318.619,472.567C327.628,472.567 421.649,377.673 428.802,370.083C426.235,394.217 413.295,497.793 416.025,517.941C417.281,527.059 439.177,528.369 448.403,528.861C445.619,594.381 443.763,693.643 443.271,694.681C428.802,725.857 424.87,734.375 420.011,743.821C411.166,760.747 373.929,823.209 369.724,837.405C369.124,839.643 369.069,840.517 371.417,844.667C364.381,852.063 357.851,859.925 351.87,868.199C348.867,873.659 361.753,924.547 370.871,942.565C372.946,946.605 376.331,952.829 380.863,952.665C394.513,952.175 394.458,903.143 394.076,889.439C394.074,889.017 393.919,888.609 393.639,888.293C396.114,884.599 398.812,881.061 401.72,877.699C403.456,878.895 405.281,879.953 407.18,880.867C409.036,881.685 411.111,880.265 412.64,879.011C430.822,864.705 528.883,742.509 549.905,684.853C559.459,658.535 572.181,622.171 575.785,596.401C577.989,580.107 578.191,563.603 576.385,547.261C576.385,547.029 576.477,546.807 576.641,546.643C576.805,546.479 577.027,546.387 577.259,546.387C577.491,546.387 577.713,546.479 577.877,546.643C578.041,546.807 578.133,547.029 578.133,547.261C580.867,563.697 581.399,580.425 579.717,597.001C575.677,632.765 547.447,707.293 532.379,734.703C545.373,732.299 571.799,727.059 584.575,723.237C627.163,710.295 666.475,671.693 669.915,628.341C671.029,607.917 671.029,587.449 669.915,567.025C669.547,538.831 665.883,510.777 658.995,483.433C670.571,477.153 681.163,469.783 684.603,463.013C691.975,448.543 672.481,365.279 668.223,341.909C691.537,344.475 731.231,349.117 749.741,334.647C770.925,317.613 816.681,269.673 842.943,232.819ZM391.128,886.435C381.3,880.485 367.54,866.343 365.466,855.259C367.704,852.419 370.052,849.799 372.236,846.851C379.636,858.143 388.861,868.125 399.536,876.389C396.537,879.569 393.73,882.923 391.128,886.435ZM825.199,194.217C825.481,194.037 825.683,193.755 825.765,193.43C825.845,193.106 825.799,192.762 825.635,192.47C823.723,188.921 817.991,176.418 821.977,174.998C824.269,174.124 826.291,175.544 827.983,177.455C830.567,180.734 832.579,184.426 833.935,188.375C834.035,188.696 834.221,188.984 834.473,189.207C834.725,189.43 835.033,189.581 835.365,189.642C835.695,189.704 836.037,189.675 836.353,189.557C836.667,189.44 836.945,189.239 837.155,188.976C842.615,182.915 855.391,169.101 862.599,165.388C868.059,162.549 869.369,167.791 855.993,180.021C852.919,182.364 849.967,184.861 847.147,187.501C846.991,187.716 846.909,187.974 846.909,188.238C846.909,188.503 846.991,188.761 847.147,188.976C847.147,190.395 848.293,191.979 850.259,190.504C855.005,186.338 860.021,182.49 865.275,178.984C867.955,177.079 871.073,175.878 874.339,175.489C872.701,180.513 857.467,194.163 856.157,195.691C855.741,196.064 855.489,196.585 855.453,197.142C855.417,197.699 855.601,198.247 855.967,198.669C856.331,199.092 856.847,199.354 857.405,199.399C857.961,199.445 858.513,199.27 858.941,198.913C865.001,194.982 875.593,185.809 879.253,187.174C882.911,188.539 872.045,198.694 869.315,201.097C853.645,214.692 857.685,205.956 839.557,224.411C831.667,215.767 822.607,208.269 812.641,202.134L825.199,194.217ZM587.961,455.369C587.033,447.833 585.887,439.699 584.467,431.235L586.815,428.123C597.735,414.091 601.011,391.759 599.973,374.233C605.815,399.841 610.457,425.011 614.005,450.017L587.961,455.369ZM506.771,268.419C492.411,257.499 469.315,238.662 455.883,225.776L477.723,214.856C497.779,233.588 514.945,255.19 528.665,278.955C549.643,317.495 565.205,358.741 574.911,401.533L497.053,291.405L507.207,270.329C507.343,270.005 507.373,269.647 507.295,269.303C507.215,268.961 507.033,268.653 506.771,268.419ZM543.681,206.502C544.009,207.103 547.775,215.129 553.509,229.161C553.509,229.762 552.471,243.412 551.979,248.217C545.011,245.454 538.439,241.782 532.433,237.297C533.635,232.546 539.039,210.979 539.421,206.12L543.681,206.502ZM524.297,265.143C524.679,264.159 525.061,262.849 525.499,261.321L529.157,263.231C531.231,264.597 530.413,260.447 532.269,272.459C532.269,274.479 532.815,276.717 532.925,279.175C530.413,274.643 527.301,269.783 524.353,265.143L524.297,265.143ZM521.239,260.555C510.925,245.925 499.183,232.354 486.187,220.043L527.301,237.897C525.717,241.665 523.423,253.185 521.295,260.555L521.239,260.555ZM563.227,292.551C557.767,277.645 553.563,260.993 551.489,256.625C551.611,255.263 551.611,253.892 551.489,252.53C552.279,252.824 553.105,253.008 553.945,253.076C554.471,253.082 554.983,252.897 555.385,252.556C555.785,252.215 556.051,251.74 556.129,251.22C556.567,249.418 557.275,240.3 557.385,238.279C573.269,278.381 586.527,319.471 597.079,361.293C566.231,295.663 570.981,314.665 563.281,292.551L563.227,292.551ZM608.381,396.783C595.933,337.105 574.039,262.685 549.141,207.54C558.283,207.545 567.413,208.275 576.441,209.724C581.081,251.22 577.205,249.8 580.317,251.438C583.429,253.076 602.157,260.611 604.941,261.757C604.669,265.961 608.599,386.191 608.437,396.783L608.381,396.783ZM545.537,110.297C548.383,116.508 549.387,123.406 548.431,130.171C547.987,131.893 547.073,133.458 545.791,134.691C544.511,135.925 542.913,136.779 541.175,137.158C539.437,137.537 537.629,137.427 535.951,136.839C534.273,136.251 532.791,135.21 531.669,133.83C529.063,128.342 527.103,122.57 525.827,116.631C527.301,114.72 543.025,110.898 545.537,110.297ZM470.407,164.897C468.413,163.989 466.371,163.187 464.293,162.495C462.897,161.921 461.651,161.035 460.651,159.906C459.651,158.776 458.921,157.432 458.521,155.978C458.121,154.523 458.059,152.996 458.339,151.513C458.621,150.031 459.237,148.632 460.143,147.425C463.583,144.531 466.695,144.695 469.533,149.008C471.335,152.339 471.281,152.612 472.099,152.94C472.335,153.043 472.589,153.095 472.845,153.092C473.103,153.09 473.355,153.032 473.589,152.924C473.821,152.815 474.027,152.658 474.195,152.463C474.361,152.268 474.485,152.04 474.557,151.793C475.367,148.375 475.497,144.832 474.939,141.364C474.283,137.597 474.175,120.889 474.283,120.343C475.879,121.184 477.671,121.58 479.471,121.49C489.353,121.108 491.319,116.03 495.251,111.88C499.783,112.317 500.711,114.501 505.843,111.88C508.247,110.513 510.451,108.823 512.395,106.857C513.963,107.5 515.479,108.266 516.927,109.15C520.199,110.724 523.889,111.207 527.457,110.529C531.023,109.851 534.279,108.047 536.747,105.383C537.347,106.53 537.893,107.676 538.385,108.877C533.367,110.434 528.643,112.814 524.407,115.921C523.479,117.067 524.843,123.292 525.171,124.766C520.597,125.341 516.171,126.767 512.121,128.97C511.303,126.131 509.501,120.835 506.661,119.361C505.807,119.099 504.895,119.099 504.041,119.361C499.127,120.125 481.491,125.421 479.361,128.315C477.505,130.335 482.801,145.951 484.439,148.517C490.719,158.236 509.119,155.397 512.559,144.04C513.411,140.228 513.411,136.276 512.559,132.465C514.141,132.465 518.893,130.772 519.439,130.608C523.205,139.071 524.297,139.563 528.665,148.681C528.065,149.172 527.083,149.991 526.263,150.537C522.387,153.103 521.567,152.667 521.785,153.759C521.849,153.975 521.989,154.161 522.181,154.282C522.371,154.403 522.601,154.449 522.823,154.414C525.115,154.086 527.353,153.462 529.485,152.557C530.759,152.082 531.811,151.147 532.433,149.937C533.961,146.497 525.499,133.557 522.169,129.68C522.823,129.68 524.353,128.588 525.499,127.987C527.027,134.103 528.065,138.907 533.961,141.31C535.665,141.953 537.483,142.246 539.303,142.171C541.123,142.096 542.909,141.654 544.555,140.873C545.427,150.483 545.263,166.098 540.677,174.616C538.329,179.038 532.543,180.731 528.829,184.389C527.737,185.427 528.447,186.901 528.829,188.484C534.889,205.356 534.999,205.301 534.671,207.485C533.065,216.55 530.821,225.49 527.955,234.239C526.591,233.638 511.249,225.503 481.219,213.819C480.289,207.649 475.321,174.725 473.737,168.664C473.847,166.535 473.575,166.044 470.407,164.624L470.407,164.897ZM508.627,142.62C506.881,148.572 498.635,151.138 492.739,149.5C486.841,147.862 486.459,144.859 483.675,137.761C482.369,135.049 481.469,132.161 480.999,129.189C482.801,127.223 502.513,123.183 504.969,122.8C508.415,128.696 509.709,135.605 508.627,142.347L508.627,142.62ZM294.977,470.439C292.902,472.459 295.687,479.065 296.124,484.797C296.124,485.289 296.124,487.419 295.796,487.583C292.793,488.565 290.008,484.033 288.316,481.303C286.623,478.573 284.931,474.861 282.255,475.843C276.795,478.409 264.128,495.227 259.159,496.973C256.648,492.169 271.008,478.465 271.499,477.699C271.71,477.349 271.82,476.947 271.818,476.537C271.816,476.129 271.702,475.727 271.488,475.379C271.274,475.029 270.969,474.745 270.605,474.557C270.241,474.371 269.833,474.287 269.424,474.315C268.441,474.315 267.786,475.189 266.257,476.553C261.607,481.091 256.285,484.885 250.478,487.801C255.743,481.761 261.378,476.053 267.349,470.711C267.644,470.407 267.852,470.031 267.95,469.619C267.95,469.619 266.803,466.725 264.565,467.871C261.398,469.619 246.001,478.519 241.142,480.813C240.486,480.375 240.869,479.721 241.142,479.065C248.84,469.619 265.766,458.153 276.14,450.891C277.358,449.637 278.371,448.201 279.143,446.633C286.328,453.317 293.992,459.467 302.075,465.033C299.585,466.665 297.213,468.471 294.977,470.439ZM422.031,520.069C420.83,519.305 419.956,518.595 419.793,517.613C416.79,495.335 433.497,369.101 433.224,364.131C433.224,363.841 433.166,363.551 433.053,363.283C432.94,363.015 432.774,362.771 432.565,362.569C432.357,362.365 432.11,362.205 431.838,362.099C431.567,361.991 431.277,361.941 430.986,361.947C428.201,361.947 433.115,361.947 363.555,428.559C358.968,432.873 323.915,466.397 318.073,468.637C310.047,468.035 279.853,443.957 274.939,436.367C284.439,417.149 399.645,259.027 439.503,234.84C442.561,232.983 447.803,230.089 453.535,227.032C455.519,228.901 457.655,230.6 459.925,232.11C472.591,244.122 490.227,259.081 503.605,270.329L493.175,291.023C493.017,291.297 492.935,291.607 492.935,291.923C492.935,292.239 493.017,292.551 493.175,292.825C577.861,414.309 576.605,412.945 577.151,412.945C582.579,441.017 585.955,469.447 587.251,498.011C587.251,505.709 587.251,505.055 587.579,504.509C587.907,503.963 587.579,504.891 587.579,504.891C574.365,519.305 443.599,532.737 422.031,520.069ZM723.861,339.179C699.127,342.619 671.171,337.487 665.767,337.269C662.763,322.713 656.777,308.937 648.185,296.811C648.053,296.633 647.861,296.513 647.645,296.473C647.427,296.431 647.205,296.475 647.019,296.591C646.831,296.709 646.697,296.893 646.639,297.105C646.583,297.317 646.609,297.543 646.711,297.739C649.877,304.181 660.469,331.973 663.091,338.743C662.271,341.363 687.769,446.797 680.563,460.993C674.119,473.823 636.609,489.985 623.069,494.625C620.391,464.229 616.017,434.007 609.965,404.099C611.821,388.375 609.419,294.899 608.709,260.337C608.689,259.935 608.555,259.549 608.323,259.219C608.091,258.891 607.771,258.635 607.399,258.481L582.883,248.162C582.771,235.187 581.951,222.227 580.427,209.341C641.633,219.934 712.941,254.932 718.891,254.987C727.519,254.987 791.619,205.847 804.887,203.881C810.783,202.953 836.119,225.066 839.067,231.181C813.187,267.327 767.705,314.829 746.629,331.263C739.839,335.803 732.001,338.527 723.861,339.179Z" fill="#000000"/>
<path d="M207.126,495.118C207.422,494.566 207.556,493.941 207.508,493.316C207.508,484.634 195.059,388.266 190.636,380.567C190.29,379.999 189.799,379.534 189.214,379.217C188.629,378.901 187.971,378.745 187.306,378.765C169.015,376.526 14.715,406.666 4.56,413.709C3.14,414.692 3.358,417.149 3.522,419.77C4.396,434.129 19.902,528.587 25.362,528.041C25.963,528.041 25.744,527.605 24.325,530.498C15.807,548.025 -0.354,604.155 -0.027,615.457C-0.027,620.207 1.065,626.377 5.761,626.049C39.449,621.899 204.614,595.691 252.116,585.917C253.972,585.535 255.174,583.843 255.118,581.059C254.558,576.419 253.152,571.922 250.97,567.79C244.308,555.287 216.68,505.765 207.126,495.118ZM25.69,526.349C21.431,520.889 5.761,426.813 6.962,416.384C18.974,410.16 171.199,380.731 187.142,383.133C191.51,395.145 202.812,481.905 203.522,492.333C184.194,498.994 50.369,520.616 25.69,526.349ZM28.092,527.987C32.679,526.84 188.889,500.687 203.194,496.919C211.002,504.181 246.274,566.917 248.566,572.268C217.226,577.728 31.314,608.795 3.959,612.945C4.341,596.401 21.322,538.579 28.092,527.987Z" fill="#000000"/>
<path d="M48.622,584.608C53.372,583.898 154.164,571.776 190.582,561.894C190.806,561.836 190.999,561.692 191.116,561.492C191.234,561.292 191.268,561.054 191.21,560.83C191.152,560.604 191.007,560.412 190.807,560.294C190.608,560.176 190.37,560.144 190.145,560.202C182.992,561.676 95.742,573.306 48.513,582.914C48.382,582.892 48.248,582.898 48.121,582.934C47.993,582.97 47.875,583.034 47.776,583.122C47.677,583.212 47.6,583.32 47.55,583.444C47.499,583.566 47.478,583.698 47.486,583.83C47.495,583.964 47.533,584.092 47.599,584.206C47.665,584.322 47.755,584.42 47.865,584.496C47.974,584.57 48.099,584.62 48.231,584.638C48.362,584.658 48.496,584.648 48.622,584.608ZM122.277,204.7C120.238,209.308 118.523,214.05 117.145,218.896C117.064,219.674 117.278,220.454 117.745,221.08C123.26,229.38 179.771,293.098 194.513,302.052C196.533,303.308 198.936,304.182 200.41,302.38C211.119,289.054 225.094,278.728 240.978,272.404C253.906,267.83 267.458,265.272 281.164,264.816C292.084,263.832 293.994,262.74 298.198,255.588C303.158,246.174 309.738,237.71 317.636,230.58C327.708,221.776 338.886,214.322 350.888,208.414C351.428,208.108 351.85,207.63 352.088,207.056C352.326,206.482 352.364,205.844 352.198,205.246C350.352,200.55 347.912,196.109 344.936,192.034C346.902,191.378 349.086,190.778 349.086,188.812C349.086,183.352 301.474,114.447 288.262,101.452C286.896,100.087 284.93,98.285 283.13,98.395C255.83,99.923 229.238,125.695 213.841,148.19C196.206,147.535 184.794,145.951 164.701,154.414C150.517,160.435 137.728,169.32 127.137,180.513C125.499,182.206 114.36,193.999 114.196,194.927C114.033,195.856 114.36,195.856 122.277,204.7ZM340.678,203.172C317.91,207.048 303.386,225.994 292.684,246.578C287.934,255.752 288.37,256.188 283.348,256.08C274.564,255.582 265.752,255.91 257.03,257.062C250.632,258.018 244.342,259.59 238.248,261.758C224.38,266.672 208.491,282.396 200.028,294.08C199.848,294.322 199.619,294.52 199.357,294.666C199.095,294.812 198.804,294.902 198.505,294.926C198.206,294.952 197.905,294.914 197.622,294.816C197.338,294.718 197.079,294.56 196.861,294.354C179.116,276.062 147.721,243.958 131.941,225.504C131.177,224.684 132.487,223.482 133.252,224.356C143.462,235.276 169.834,261.43 198.117,289.876C207.672,277.7 222.414,262.958 236.992,257.826C244.942,254.99 253.214,253.156 261.616,252.366C269.486,251.768 277.39,251.768 285.258,252.366C288.48,248.654 304.424,206.502 340.568,201.806C340.674,201.884 340.762,201.984 340.822,202.1C340.884,202.216 340.92,202.344 340.924,202.476C340.93,202.608 340.906,202.738 340.852,202.858C340.8,202.978 340.722,203.086 340.622,203.172L340.678,203.172ZM283.074,102.817C293.994,110.461 338.438,176.254 344.226,187.775C334.184,190.957 324.488,195.146 315.288,200.278C306.576,204.646 298.948,210.902 292.96,218.59C286.972,226.278 282.774,235.206 280.672,244.722C261.07,212.836 233.716,177.728 215.534,151.903C216.626,151.193 247.312,104.947 283.074,102.817ZM165.903,157.417C185.832,149.391 196.861,151.247 213.35,151.957C229.73,179.912 259.16,219.334 278.542,245.16C260.652,240.926 241.828,243.516 225.744,252.42C216.08,257.88 204.286,270.984 197.025,279.12C186.541,270.712 126.045,206.284 116.326,195.364C131.286,178.438 145.1,165.716 165.903,157.199L165.903,157.417ZM65.985,296.264C64.635,295.318 63.04,294.782 61.392,294.724C59.745,294.666 58.116,295.088 56.703,295.938C55.674,296.396 54.745,297.054 53.97,297.87C53.195,298.688 52.589,299.65 52.186,300.702C51.783,301.754 51.591,302.876 51.621,304.002C51.651,305.128 51.903,306.238 52.362,307.266C52.821,308.296 53.478,309.224 54.296,310C55.113,310.774 56.076,311.38 57.128,311.784C58.18,312.186 59.301,312.378 60.427,312.348C61.553,312.318 62.663,312.066 63.691,311.608C65.335,311.248 66.831,310.398 67.98,309.168C69.129,307.94 69.878,306.39 70.127,304.726C70.375,303.062 70.113,301.362 69.373,299.85C68.633,298.34 67.451,297.09 65.985,296.264ZM62.381,307.184C58.559,308.386 56.266,307.184 55.338,305.328C53.59,301.452 55.774,295.5 61.453,297.248C65.439,298.722 68.66,305.438 62.381,307.458L62.381,307.184ZM343.626,46.415C345.21,49.637 352.58,48.436 355.802,47.398C357.494,46.852 358.586,46.252 358.75,44.614C359.242,40.519 359.788,5.029 357.932,1.589C357.74,1.228 357.446,0.932 357.086,0.738C356.726,0.544 356.318,0.46 355.91,0.497C350.086,0.481 344.29,1.327 338.712,3.008C336.474,4.373 341.66,42.812 343.626,46.415ZM339.858,4.319C344.902,3.597 350.004,3.36 355.092,3.609C355.42,7.649 354.546,42.648 354.492,43.194C352.184,44.021 349.722,44.319 347.284,44.068C346.902,42.812 346.246,39.427 345.428,35.168C343.022,24.992 341.162,14.694 339.858,4.319ZM60.688,250.182C61.212,250.45 61.792,250.59 62.381,250.59C62.97,250.59 63.55,250.45 64.074,250.182C66.183,248.882 67.856,246.98 68.878,244.722C69.017,244.362 69.06,243.97 69.003,243.588C68.945,243.204 68.79,242.844 68.551,242.538C65.93,239.426 37.32,206.284 33.825,208.358C29.535,211.136 25.464,214.24 21.649,217.64C21.496,217.778 21.372,217.946 21.288,218.134C21.203,218.322 21.159,218.526 21.158,218.732C21.049,221.572 52.826,247.016 60.688,250.182ZM34.48,209.778C38.466,212.672 51.898,229.27 64.347,243.958C63.811,244.802 63.148,245.556 62.381,246.196C49.293,237.82 36.796,228.552 24.98,218.46C27.942,215.35 31.117,212.448 34.48,209.778ZM120.257,89.331C121.458,68.146 133.798,58.318 146.683,55.807C143.025,69.238 143.626,86.71 156.894,88.949C163.227,89.986 166.339,86.71 170.926,82.888C190.527,66.508 174.693,50.128 152.58,51.275C160.825,28.67 179.88,10.27 205.16,9.67C205.392,9.67 205.614,9.578 205.778,9.414C205.942,9.25 206.034,9.028 206.034,8.796C206.034,8.564 205.942,8.342 205.778,8.178C205.614,8.014 205.392,7.922 205.16,7.922C177.86,7.376 156.402,27.032 147.939,51.602C133.361,54.114 118.892,65.034 118.51,89.003C118.488,89.118 118.49,89.236 118.514,89.35C118.538,89.464 118.584,89.573 118.65,89.669C118.716,89.765 118.8,89.848 118.898,89.912C118.996,89.975 119.105,90.019 119.22,90.041C119.334,90.062 119.452,90.061 119.566,90.037C119.681,90.013 119.789,89.967 119.885,89.901C119.982,89.835 120.064,89.751 120.128,89.653C120.192,89.555 120.236,89.446 120.257,89.331ZM151.324,55.151C159.46,54.605 171.581,57.117 174.912,64.488C176.823,68.692 174.912,73.879 168.141,79.558C166.303,81.399 164.206,82.962 161.917,84.199C153.727,87.693 144.663,77.592 151.324,55.151ZM166.94,827.358C161.665,825.946 156.161,825.602 150.751,826.348C145.341,827.094 140.135,828.916 135.439,831.702C130.743,834.49 126.653,838.19 123.408,842.582C120.163,846.974 117.829,851.972 116.544,857.28C114.119,868.306 116.173,879.846 122.255,889.358C128.338,898.87 137.95,905.578 148.977,908.004C160.004,910.428 171.543,908.374 181.055,902.292C190.568,896.21 197.275,886.598 199.7,875.57C200.736,870.252 200.709,864.782 199.621,859.474C198.533,854.166 196.405,849.124 193.359,844.644C190.314,840.162 186.412,836.326 181.877,833.36C177.343,830.394 172.266,828.354 166.94,827.358ZM183.811,871.858C181.621,880.596 176.376,888.26 169.026,893.468C161.675,898.676 152.705,901.08 143.735,900.25C135.501,897.032 128.666,891.014 124.432,883.256C120.197,875.496 118.835,866.49 120.585,857.826C122.628,848.876 127.824,840.96 135.222,835.528C142.621,830.094 151.729,827.504 160.879,828.232C169.194,831.668 176.031,837.926 180.186,845.906C184.341,853.886 185.547,863.076 183.593,871.858L183.811,871.858Z" fill="#000000"/>
<path d="M239.667,842.919C234.914,841.279 229.819,840.885 224.87,841.773C222.819,837.069 220.294,832.587 217.335,828.395C220.884,825.175 230.603,816.219 228.255,812.015C219.9,802.021 209.98,793.447 198.881,786.627C194.246,784.031 189.143,782.379 183.866,781.767C180.371,782.259 172.072,795.853 170.216,798.911C169.014,798.911 164.756,797.547 164.428,797.383C164.428,793.451 163.281,779.255 159.732,777.617C155.764,776.157 151.643,775.149 147.447,774.615C143.571,774.013 108.682,780.403 106.115,785.097C104.423,788.265 108.354,800.221 109.5,803.553C106.556,805.173 103.728,806.997 101.038,809.013C95.578,812.889 97.052,812.725 96.069,812.289C94.881,811.721 93.608,811.353 92.302,811.197C87.94,808.639 82.826,807.675 77.833,808.467C72.809,810.105 60.961,837.077 59.05,844.011C58.425,845.759 58.256,847.639 58.559,849.471C59.869,853.075 68.605,855.969 72.263,857.115C71.253,864.141 71.253,871.275 72.263,878.301C67.459,879.611 57.467,882.559 58.013,887.473C58.559,892.387 71.335,924.819 76.631,927.385C79.533,929.007 82.741,930.007 86.051,930.317C89.36,930.627 92.698,930.243 95.85,929.187C97.626,928.301 99.34,927.297 100.983,926.185C103.167,927.823 105.46,929.297 107.808,930.717C106.115,934.921 102.348,944.311 103.549,948.571C104.15,950.809 105.952,951.519 108.463,952.447C115.397,954.959 152.744,963.913 158.422,962.931C160.551,962.603 161.698,960.363 162.353,958.235C163.566,953.387 164.28,948.429 164.483,943.437C167.287,943.161 170.075,942.741 172.836,942.183C174.523,945.149 176.68,947.823 179.225,950.099C182.009,952.065 184.357,951.081 187.524,949.061C189.053,951.027 191.346,953.757 193.803,954.031C199.973,954.741 225.471,930.717 228.092,925.803C230.276,921.707 222.304,914.391 218.755,911.169C222.594,905.391 225.608,899.107 227.709,892.495C231.648,893.089 235.633,893.309 239.612,893.151C241.414,893.151 243.489,892.497 244.253,890.803C247.584,883.213 246.601,854.439 244.253,847.123C243.926,844.995 241.469,843.575 239.667,842.919ZM240.977,847.943C242.834,855.041 243.434,881.849 240.704,888.783C235.984,889.249 231.22,889.027 226.563,888.127C226.066,888.043 225.555,888.147 225.13,888.419C224.706,888.693 224.399,889.115 224.27,889.603C222.095,896.983 218.719,903.957 214.278,910.241C213.961,910.657 213.819,911.181 213.88,911.699C213.941,912.219 214.201,912.695 214.605,913.025C218.436,916.061 221.691,919.759 224.215,923.945C221.485,928.423 200.136,947.969 194.24,949.607C193.366,949.607 190.964,946.331 190.363,945.459C188.346,942.427 186.523,939.273 184.903,936.013C184.667,935.537 184.261,935.167 183.766,934.975C183.271,934.783 182.723,934.783 182.228,934.975C166.394,940.927 160.388,937.431 160.388,941.363C160.395,947.249 159.436,953.097 157.548,958.671C144.717,957.277 132.081,954.455 119.874,950.263C120.464,944.433 122.091,938.757 124.679,933.501C126.317,929.843 119.765,930.879 107.535,918.431C107.141,918.067 106.625,917.863 106.088,917.863C105.551,917.863 105.035,918.067 104.641,918.431C99.181,922.909 92.083,927.277 90.664,926.567C87.879,925.201 75.048,896.099 74.284,890.203C78.167,887.497 82.576,885.637 87.224,884.743C87.719,884.603 88.147,884.287 88.429,883.855C88.71,883.425 88.825,882.905 88.753,882.395C87.414,874.663 87.414,866.759 88.753,859.027C88.836,858.551 88.736,858.061 88.472,857.655C88.209,857.249 87.802,856.959 87.333,856.843C83.217,855.763 79.254,854.167 75.539,852.093C74.338,851.219 74.447,851.273 74.557,850.345C78.091,837.599 83.758,825.543 91.319,814.691C94.267,813.871 102.239,819.715 104.969,821.789C105.254,822.065 105.636,822.221 106.033,822.221C106.431,822.221 106.813,822.065 107.098,821.789C109.607,819.187 112.308,816.777 115.179,814.581C123.478,808.303 125.717,809.121 125.007,806.937C122.497,801.459 121.087,795.541 120.857,789.521C121.704,788.817 122.664,788.263 123.696,787.883C128.794,785.867 134.031,784.225 139.367,782.969C145.834,781.167 152.481,780.085 159.186,779.747C160.333,780.239 161.37,785.207 161.643,786.735C163.664,797.655 162.299,799.895 163.882,800.059C179.443,801.587 182.61,805.901 183.702,803.989C186.73,798.695 190.258,793.703 194.24,789.083C195.386,787.937 195.332,787.391 198.772,789.357C209.048,796.071 218.251,804.299 226.071,813.763C226.89,815.183 219.792,822.717 214.605,827.139C212.804,828.723 215.37,829.433 220.065,838.387C224.761,847.341 223.669,849.853 226.181,849.307C231.022,848.149 236.005,847.689 240.977,847.943ZM998.771,391.705C987.325,387.029 975.323,383.855 963.061,382.259C954.107,380.839 943.569,379.419 934.671,378.273C943.243,366.151 968.631,335.467 972.889,327.987C974.091,325.967 971.799,323.127 970.105,321.435C960.605,311.279 942.259,307.457 928.173,305.273C920.091,303.963 886.349,299.813 880.617,302.543C873.737,305.819 822.849,382.259 821.321,393.889C821.321,395.855 821.975,396.619 823.887,397.329C831.913,400.277 868.113,404.863 876.193,406.775C865.273,425.885 816.735,490.477 811.983,499.595C810.837,501.887 811.547,503.253 812.913,503.689C817.825,505.639 822.881,507.209 828.037,508.385C830.001,508.985 834.315,506.311 840.595,502.489C868.767,485.563 989.653,405.737 998.935,395.417C999.191,395.175 999.391,394.881 999.523,394.555C999.657,394.227 999.717,393.875 999.701,393.523C999.685,393.171 999.595,392.827 999.433,392.513C999.273,392.199 999.047,391.923 998.771,391.705ZM881.435,457.225C835.025,487.855 819.355,496.809 818.809,497.191C826.289,485.781 872.753,422.117 880.725,406.883C880.863,406.589 880.935,406.267 880.933,405.943C880.933,405.617 880.859,405.297 880.717,405.003C880.575,404.711 880.371,404.453 880.117,404.249C879.863,404.045 879.567,403.901 879.251,403.825C873.791,401.861 834.043,397.601 824.651,394.271C825.853,384.115 875.429,307.348 881.435,304.29C887.441,301.233 945.699,308.167 956.619,315.975C950.887,327.167 919.219,366.371 914.085,375.489C913.049,377.345 912.721,379.147 914.741,379.639C916.761,380.129 968.085,386.135 979.279,389.793C965.629,401.205 896.723,446.959 881.435,457.007L881.435,457.225ZM531.177,123.401C531.177,123.892 531.503,124.493 532.323,127.659C532.537,128.346 533.011,128.923 533.641,129.269C534.273,129.616 535.013,129.704 535.707,129.516C536.403,129.313 536.989,128.842 537.337,128.208C537.685,127.573 537.767,126.826 537.565,126.131C537.019,124.001 536.527,122.199 536.199,121.326C535.881,120.726 535.351,120.267 534.713,120.037C534.075,119.807 533.373,119.823 532.745,120.082C532.119,120.341 531.609,120.824 531.319,121.438C531.029,122.052 530.979,122.751 531.177,123.401Z" fill="#000000"/>
</svg>
