<svg width="120" height="120" viewBox="0 0 120 120" fill="none" xmlns="http://www.w3.org/2000/svg" xmlns:xlink="http://www.w3.org/1999/xlink">
<path d="M60.103,0L59.83,0C26.778,0 -0.016,26.802 -0.016,59.863L-0.016,60.137C-0.016,93.198 26.778,120 59.83,120L60.103,120C93.155,120 119.949,93.198 119.949,60.137L119.949,59.863C119.949,26.802 93.155,0 60.103,0Z" fill="#383D38"/>
<path d="M89.986,32.452C84.464,29.917 78.546,28.051 72.355,26.983C72.241,26.962 72.128,27.012 72.073,27.117C71.312,28.471 70.468,30.241 69.879,31.628C63.222,30.632 56.598,30.632 50.075,31.628C49.482,30.207 48.608,28.471 47.843,27.117C47.784,27.016 47.671,26.966 47.562,26.983C41.375,28.051 35.453,29.917 29.93,32.452C29.884,32.473 29.842,32.507 29.813,32.553C18.582,49.336 15.506,65.707 17.015,81.877C17.023,81.957 17.065,82.032 17.128,82.079C24.538,87.523 31.717,90.827 38.761,93.018C38.874,93.051 38.992,93.009 39.063,92.917C40.728,90.642 42.216,88.242 43.489,85.715C43.565,85.568 43.489,85.391 43.338,85.333C40.98,84.437 38.74,83.348 36.579,82.112C36.407,82.011 36.394,81.767 36.55,81.65C37.004,81.309 37.458,80.956 37.891,80.599C37.971,80.531 38.08,80.519 38.172,80.561C52.349,87.035 67.698,87.035 81.706,80.561C81.799,80.515 81.908,80.531 81.988,80.594C82.421,80.952 82.875,81.309 83.333,81.65C83.488,81.767 83.48,82.011 83.308,82.112C81.152,83.373 78.907,84.441 76.545,85.333C76.39,85.391 76.322,85.568 76.398,85.719C77.701,88.238 79.185,90.638 80.82,92.917C80.887,93.014 81.009,93.056 81.122,93.022C88.2,90.832 95.379,87.527 102.788,82.083C102.851,82.036 102.893,81.961 102.902,81.885C104.709,63.193 99.876,46.957 90.095,32.562C90.07,32.515 90.032,32.478 89.982,32.457L89.986,32.452ZM45.599,72.031C41.329,72.031 37.815,68.112 37.815,63.298C37.815,58.485 41.266,54.566 45.599,54.566C49.932,54.566 53.454,58.522 53.383,63.298C53.383,68.112 49.932,72.031 45.599,72.031ZM74.385,72.031C70.115,72.031 66.601,68.112 66.601,63.298C66.601,58.485 70.052,54.566 74.385,54.566C78.718,54.566 82.24,58.522 82.169,63.298C82.169,68.112 78.756,72.031 74.385,72.031Z" fill="#FFFFFF"/>
</svg>
