<svg width="120" height="120" viewBox="0 0 120 120" fill="none" xmlns="http://www.w3.org/2000/svg" xmlns:xlink="http://www.w3.org/1999/xlink">
<path d="M60.139,0L59.866,0C26.814,0 0.02,26.802 0.02,59.863L0.02,60.137C0.02,93.198 26.814,120 59.866,120L60.139,120C93.191,120 119.984,93.198 119.984,60.137L119.984,59.863C119.984,26.802 93.191,0 60.139,0Z" fill="#383D38"/>
<path d="M78.565,24.414L41.444,24.414C31.189,24.414 22.846,32.759 22.846,43.018L22.846,76.987C22.846,87.246 31.189,95.591 41.444,95.591L78.565,95.591C88.82,95.591 97.163,87.246 97.163,76.987L97.163,43.018C97.163,32.759 88.82,24.414 78.565,24.414ZM29.407,43.018C29.407,36.379 34.808,30.977 41.444,30.977L78.565,30.977C85.201,30.977 90.602,36.379 90.602,43.018L90.602,76.987C90.602,83.626 85.201,89.028 78.565,89.028L41.444,89.028C34.808,89.028 29.407,83.626 29.407,76.987L29.407,43.018Z" fill="#FFFFFF"/>
<path d="M60.005,77.302C69.541,77.302 77.304,69.541 77.304,59.998C77.304,50.454 69.546,42.693 60.005,42.693C50.464,42.693 42.706,50.454 42.706,59.998C42.706,69.541 50.464,77.302 60.005,77.302ZM60.005,49.26C65.927,49.26 70.743,54.078 70.743,60.002C70.743,65.926 65.927,70.744 60.005,70.744C54.083,70.744 49.266,65.926 49.266,60.002C49.266,54.078 54.083,49.26 60.005,49.26Z" fill="#FFFFFF"/>
<path d="M78.906,45.489C81.474,45.489 83.567,43.399 83.567,40.827C83.567,38.254 81.478,36.164 78.906,36.164C76.334,36.164 74.245,38.254 74.245,40.827C74.245,43.399 76.334,45.489 78.906,45.489Z" fill="#FFFFFF"/>
</svg>
