<svg width="120" height="120" viewBox="0 0 120 120" fill="none" xmlns="http://www.w3.org/2000/svg" xmlns:xlink="http://www.w3.org/1999/xlink">
<path d="M60.139,0L59.865,0C26.813,0 0.02,26.802 0.02,59.863L0.02,60.137C0.02,93.198 26.813,120 59.865,120L60.139,120C93.19,120 119.984,93.198 119.984,60.137L119.984,59.863C119.984,26.802 93.19,0 60.139,0Z" fill="#383D38"/>
<path d="M78.564,24.414L41.444,24.414C31.189,24.414 22.846,32.759 22.846,43.018L22.846,76.987C22.846,87.246 31.189,95.591 41.444,95.591L78.564,95.591C88.819,95.591 97.162,87.246 97.162,76.987L97.162,43.018C97.162,32.759 88.819,24.414 78.564,24.414ZM29.407,43.018C29.407,36.379 34.807,30.977 41.444,30.977L78.564,30.977C85.201,30.977 90.601,36.379 90.601,43.018L90.601,76.987C90.601,83.626 85.201,89.028 78.564,89.028L41.444,89.028C34.807,89.028 29.407,83.626 29.407,76.987L29.407,43.018Z" fill="#FFFFFF"/>
<path d="M60.004,77.302C69.541,77.302 77.304,69.541 77.304,59.998C77.304,50.454 69.545,42.693 60.004,42.693C50.464,42.693 42.705,50.454 42.705,59.998C42.705,69.541 50.464,77.302 60.004,77.302ZM60.004,49.26C65.926,49.26 70.743,54.078 70.743,60.002C70.743,65.926 65.926,70.744 60.004,70.744C54.082,70.744 49.266,65.926 49.266,60.002C49.266,54.078 54.082,49.26 60.004,49.26Z" fill="#FFFFFF"/>
<path d="M78.905,45.489C81.473,45.489 83.566,43.399 83.566,40.827C83.566,38.254 81.477,36.164 78.905,36.164C76.333,36.164 74.244,38.254 74.244,40.827C74.244,43.399 76.333,45.489 78.905,45.489Z" fill="#FFFFFF"/>
</svg>
