<svg width="80" height="80" viewBox="0 0 80 80" fill="none" xmlns="http://www.w3.org/2000/svg" xmlns:xlink="http://www.w3.org/1999/xlink">
<path d="M44.495,17.828C46.057,16.266 46.057,13.734 44.495,12.172C42.933,10.609 40.401,10.609 38.838,12.172L44.495,17.828ZM25,31.667L22.172,28.838C20.61,30.4 20.61,32.933 22.172,34.495L25,31.667ZM38.838,51.162C40.401,52.724 42.933,52.724 44.495,51.162C46.057,49.6 46.057,47.067 44.495,45.505L38.838,51.162ZM55,35.667C57.209,35.667 59,33.876 59,31.667C59,29.458 57.209,27.667 55,27.667L55,35.667ZM38.838,12.172L22.172,28.838L27.829,34.495L44.495,17.828L38.838,12.172ZM22.172,34.495L38.838,51.162L44.495,45.505L27.829,28.838L22.172,34.495ZM25,35.667L55,35.667L55,27.667L25,27.667L25,35.667Z" transform="rotate(-180 40 31.667)" fill="#33363F"/>
<path d="M23.333,63.333L23.333,67.333L23.333,67.333L23.333,63.333ZM56.667,63.333L56.667,67.333L56.667,67.333L56.667,63.333ZM20.667,53.333C20.667,51.124 18.876,49.333 16.667,49.333C14.457,49.333 12.667,51.124 12.667,53.333L20.667,53.333ZM67.333,53.333C67.333,51.124 65.542,49.333 63.333,49.333C61.124,49.333 59.333,51.124 59.333,53.333L67.333,53.333ZM23.333,67.333L56.667,67.333L56.667,59.333L23.333,59.333L23.333,67.333ZM20.667,56.667L20.667,53.333L12.667,53.333L12.667,56.667L20.667,56.667ZM67.333,56.667L67.333,53.333L59.333,53.333L59.333,56.667L67.333,56.667ZM56.667,67.333C62.558,67.333 67.333,62.558 67.333,56.667L59.333,56.667C59.333,58.139 58.139,59.333 56.667,59.333L56.667,67.333ZM23.333,59.333C21.86,59.333 20.667,58.139 20.667,56.667L12.667,56.667C12.667,62.558 17.442,67.333 23.333,67.333L23.333,59.333Z" fill="#33363F"/>
</svg>
