<svg width="80" height="80" viewBox="0 0 80 80" fill="none" xmlns="http://www.w3.org/2000/svg" xmlns:xlink="http://www.w3.org/1999/xlink">
<path d="M44.496,17.828C46.058,16.266 46.058,13.734 44.496,12.172C42.934,10.609 40.401,10.609 38.839,12.172L44.496,17.828ZM25.001,31.667L22.172,28.838C20.61,30.4 20.61,32.933 22.172,34.495L25.001,31.667ZM38.839,51.162C40.401,52.724 42.934,52.724 44.496,51.162C46.058,49.6 46.058,47.067 44.496,45.505L38.839,51.162ZM55.001,35.667C57.21,35.667 59.001,33.876 59.001,31.667C59.001,29.458 57.21,27.667 55.001,27.667L55.001,35.667ZM38.839,12.172L22.172,28.838L27.829,34.495L44.496,17.828L38.839,12.172ZM22.172,34.495L38.839,51.162L44.496,45.505L27.829,28.838L22.172,34.495ZM25.001,35.667L55.001,35.667L55.001,27.667L25.001,27.667L25.001,35.667Z" transform="rotate(-180 40.001 31.667)" fill="#33363F"/>
<path d="M23.333,63.333L23.333,67.333L23.333,67.333L23.333,63.333ZM56.666,63.333L56.666,67.333L56.666,67.333L56.666,63.333ZM20.666,53.333C20.666,51.124 18.875,49.333 16.666,49.333C14.457,49.333 12.666,51.124 12.666,53.333L20.666,53.333ZM67.333,53.333C67.333,51.124 65.542,49.333 63.333,49.333C61.124,49.333 59.333,51.124 59.333,53.333L67.333,53.333ZM23.333,67.333L56.666,67.333L56.666,59.333L23.333,59.333L23.333,67.333ZM20.666,56.667L20.666,53.333L12.666,53.333L12.666,56.667L20.666,56.667ZM67.333,56.667L67.333,53.333L59.333,53.333L59.333,56.667L67.333,56.667ZM56.666,67.333C62.557,67.333 67.333,62.558 67.333,56.667L59.333,56.667C59.333,58.139 58.139,59.333 56.666,59.333L56.666,67.333ZM23.333,59.333C21.86,59.333 20.666,58.139 20.666,56.667L12.666,56.667C12.666,62.558 17.442,67.333 23.333,67.333L23.333,59.333Z" fill="#33363F"/>
</svg>
