<svg width="36" height="24" viewBox="0 0 36 24" fill="none" xmlns="http://www.w3.org/2000/svg" xmlns:xlink="http://www.w3.org/1999/xlink">
<path d="M30.474,18.231C32.097,16.767 33.427,15.283 34.376,14.131C35.152,13.189 35.54,12.718 35.54,12C35.54,11.282 35.152,10.811 34.376,9.869C31.536,6.42 25.271,0 18,0C16.321,0 14.696,0.342 13.154,0.911L18.248,6.005C21.364,6.132 23.868,8.636 23.995,11.752L30.474,18.231ZM12.786,9.029C12.286,9.905 12,10.919 12,12C12,15.314 14.686,18 18,18C19.081,18 20.095,17.714 20.971,17.214L25.574,21.817C23.272,23.111 20.706,24 18,24C10.729,24 4.464,17.58 1.624,14.131C0.848,13.189 0.459,12.718 0.459,12C0.459,11.282 0.848,10.811 1.624,9.869C2.971,8.233 5.088,5.93 7.717,3.959L12.786,9.029Z" clip-rule="evenodd" fill-rule="evenodd" fill="#33363F"/>
</svg>
