<svg width="60" height="60" viewBox="0 0 60 60" fill="none" xmlns="http://www.w3.org/2000/svg" xmlns:xlink="http://www.w3.org/1999/xlink">
<path d="M30,60C46.569,60 60,46.569 60,30C60,24.136 58.318,18.665 55.409,14.043L30.863,41.316C28.785,43.625 25.289,43.966 22.804,42.103L10.933,33.2C9.166,31.875 8.808,29.367 10.133,27.6C11.459,25.833 13.966,25.475 15.733,26.8L26.14,34.605L50.226,7.843C44.892,2.972 37.793,0 30,0C13.431,0 0,13.431 0,30C0,46.569 13.431,60 30,60Z" clip-rule="evenodd" fill-rule="evenodd" fill="#222222"/>
</svg>
