<svg width="54" height="68" viewBox="0 0 54 68" fill="none" xmlns="http://www.w3.org/2000/svg" xmlns:xlink="http://www.w3.org/1999/xlink">
<path d="M27.333,0.667L27.333,20L27.333,20.109C27.333,20.957 27.333,21.781 27.424,22.461C27.527,23.227 27.779,24.102 28.505,24.828C29.231,25.555 30.106,25.806 30.872,25.909C31.552,26 32.376,26 33.225,26L33.333,26L52.667,26L52.667,47.333C52.667,56.761 52.667,61.475 49.738,64.404C46.809,67.333 42.095,67.333 32.667,67.333L19.333,67.333C9.905,67.333 5.191,67.333 2.262,64.404C-0.667,61.475 -0.667,56.761 -0.667,47.333L-0.667,20.667C-0.667,11.239 -0.667,6.525 2.262,3.596C5.191,0.667 9.905,0.667 19.333,0.667L27.333,0.667ZM31.333,0.667L31.333,20C31.333,20.999 31.338,21.548 31.389,21.928L31.391,21.943L31.405,21.945C31.786,21.996 32.334,22 33.333,22L52.666,22C52.661,19.831 52.611,18.633 52.159,17.544C51.652,16.318 50.688,15.355 48.761,13.428L39.905,4.572C37.978,2.645 37.015,1.682 35.79,1.174C34.7,0.723 33.502,0.673 31.333,0.667ZM14,37.333C14,36.229 14.896,35.333 16,35.333L36,35.333C37.105,35.333 38,36.229 38,37.333C38,38.438 37.105,39.333 36,39.333L16,39.333C14.896,39.333 14,38.438 14,37.333ZM16,48.667C14.896,48.667 14,49.562 14,50.667C14,51.771 14.896,52.667 16,52.667L29.333,52.667C30.438,52.667 31.333,51.771 31.333,50.667C31.333,49.562 30.438,48.667 29.333,48.667L16,48.667Z" clip-rule="evenodd" fill-rule="evenodd" fill="#222222"/>
</svg>
