<svg width="58" height="80" viewBox="0 0 58 80" fill="none" xmlns="http://www.w3.org/2000/svg" xmlns:xlink="http://www.w3.org/1999/xlink">
<path d="M42.857,59C42.857,54.866 45.195,51.175 48.199,48.335C53.706,43.126 57.143,35.75 57.143,27.571C57.143,11.792 44.351,-1 28.571,-1C12.792,-1 0,11.792 0,27.571C0,35.75 3.436,43.126 8.944,48.335C11.948,51.175 14.286,54.866 14.286,59L14.286,59C14.286,62.156 16.844,64.714 20,64.714L37.143,64.714C40.299,64.714 42.857,62.156 42.857,59L42.857,59ZM14.286,74.714C14.286,72.347 16.205,70.429 18.571,70.429L38.571,70.429C40.938,70.429 42.857,72.347 42.857,74.714C42.857,77.081 40.938,79 38.571,79L18.571,79C16.205,79 14.286,77.081 14.286,74.714Z" clip-rule="evenodd" fill-rule="evenodd" stroke="#000000" stroke-width="4" stroke-miterlimit="3.999327"/>
</svg>
