<svg width="58" height="80" viewBox="0 0 58 80" fill="none" xmlns="http://www.w3.org/2000/svg" xmlns:xlink="http://www.w3.org/1999/xlink">
<path d="M42.898,59C42.898,54.866 45.236,51.175 48.24,48.335C53.747,43.126 57.184,35.75 57.184,27.571C57.184,11.792 44.392,-1 28.612,-1C12.833,-1 0.041,11.792 0.041,27.571C0.041,35.75 3.478,43.126 8.985,48.335C11.989,51.175 14.327,54.866 14.327,59L14.327,59C14.327,62.156 16.885,64.714 20.041,64.714L37.184,64.714C40.34,64.714 42.898,62.156 42.898,59L42.898,59ZM14.327,74.714C14.327,72.347 16.246,70.429 18.612,70.429L38.612,70.429C40.979,70.429 42.898,72.347 42.898,74.714C42.898,77.081 40.979,79 38.612,79L18.612,79C16.246,79 14.327,77.081 14.327,74.714Z" clip-rule="evenodd" fill-rule="evenodd" stroke="#000000" stroke-width="4" stroke-miterlimit="3.999327"/>
</svg>
