<svg width="86" height="86" viewBox="0 0 86 86" fill="none" xmlns="http://www.w3.org/2000/svg" xmlns:xlink="http://www.w3.org/1999/xlink">
<path d="M12.976,32.942C10.75,36.708 10.75,41.792 10.75,51.958C10.75,62.125 10.75,67.208 12.976,70.975C14.349,73.297 16.286,75.235 18.609,76.607C22.375,78.833 27.458,78.833 37.625,78.833L48.375,78.833C58.542,78.833 63.625,78.833 67.391,76.607C69.714,75.235 71.651,73.297 73.024,70.975C75.25,67.208 75.25,62.125 75.25,51.958C75.25,41.792 75.25,36.708 73.024,32.942C71.651,30.62 69.714,28.682 67.391,27.309C63.625,25.083 58.542,25.083 48.375,25.083L37.625,25.083C27.458,25.083 22.375,25.083 18.609,27.309C16.286,28.682 14.349,30.62 12.976,32.942ZM43,52.917C44.519,52.917 45.75,51.686 45.75,50.167C45.75,48.648 44.519,47.417 43,47.417C41.481,47.417 40.25,48.648 40.25,50.167C40.25,51.686 41.481,52.917 43,52.917ZM53.75,50.167C53.75,54.69 50.956,58.561 47,60.148L47,69.517C47,71.726 45.209,73.517 43,73.517C40.791,73.517 39,71.726 39,69.517L39,60.148C35.044,58.561 32.25,54.69 32.25,50.167C32.25,44.23 37.063,39.417 43,39.417C48.937,39.417 53.75,44.23 53.75,50.167Z" clip-rule="evenodd" fill-rule="evenodd" fill="#222222"/>
<path d="M54.162,20.949C54.937,23.018 57.242,24.067 59.311,23.291C61.379,22.516 62.428,20.211 61.653,18.142L54.162,20.949ZM25.042,22.857C24.319,24.944 25.425,27.222 27.512,27.946C29.6,28.669 31.878,27.563 32.601,25.475L25.042,22.857ZM46.696,7.028L45.441,6.945L44.915,14.928L46.17,15.011L46.696,7.028ZM26.111,19.77L25.042,22.857L32.601,25.475L33.671,22.388L26.111,19.77ZM45.441,6.945C36.845,6.379 28.931,11.63 26.111,19.77L33.671,22.388C35.311,17.653 39.915,14.599 44.915,14.928L45.441,6.945ZM61.653,18.142C59.285,11.82 53.432,7.472 46.696,7.028L46.17,15.011C49.769,15.248 52.896,17.571 54.162,20.949L61.653,18.142Z" transform="rotate(54.455 43.364 17.172)" fill="#222222"/>
</svg>
