<svg width="26" height="48" viewBox="0 0 26 48" fill="none" xmlns="http://www.w3.org/2000/svg" xmlns:xlink="http://www.w3.org/1999/xlink">
<path d="M24.828,6.828C26.391,5.266 26.391,2.734 24.828,1.172C23.266,-0.391 20.734,-0.391 19.172,1.172L24.828,6.828ZM4.828,21.172L2,18.343L2,18.343L4.828,21.172ZM4.828,26.828L2,29.657L2,29.657L4.828,26.828ZM19.172,46.828C20.734,48.391 23.266,48.391 24.828,46.828C26.391,45.266 26.391,42.734 24.828,41.172L19.172,46.828ZM19.172,1.172L2,18.343L7.657,24L24.828,6.828L19.172,1.172ZM2,29.657L19.172,46.828L24.828,41.172L7.657,24L2,29.657ZM2,18.343C-1.124,21.467 -1.124,26.533 2,29.657L7.657,24L7.657,24L2,18.343Z" transform="rotate(-180 12 24)" fill="#000000"/>
</svg>
