<svg width="28" height="48" viewBox="0 0 28 48" fill="none" xmlns="http://www.w3.org/2000/svg" xmlns:xlink="http://www.w3.org/1999/xlink">
<path d="M25.828,6.828C27.391,5.266 27.391,2.734 25.828,1.172C24.266,-0.391 21.734,-0.391 20.172,1.172L25.828,6.828ZM5.828,21.172L3,18.343L3,18.343L5.828,21.172ZM5.828,26.828L3,29.657L3,29.657L5.828,26.828ZM20.172,46.828C21.734,48.391 24.266,48.391 25.828,46.828C27.391,45.266 27.391,42.734 25.828,41.172L20.172,46.828ZM20.172,1.172L3,18.343L8.657,24L25.828,6.828L20.172,1.172ZM3,29.657L20.172,46.828L25.828,41.172L8.657,24L3,29.657ZM3,18.343C-0.124,21.467 -0.124,26.533 3,29.657L8.657,24L8.657,24L3,18.343Z" transform="rotate(-180 13 24)" fill="#000000"/>
</svg>
