<svg width="80" height="80" viewBox="0 0 80 80" fill="none" xmlns="http://www.w3.org/2000/svg" xmlns:xlink="http://www.w3.org/1999/xlink">
<path d="M59.278,51.702C62.673,48.855 65.427,45.819 67.293,43.552C68.587,41.981 69.234,41.196 69.234,40C69.234,38.804 68.587,38.019 67.293,36.448C62.56,30.7 52.119,20 40,20C36.464,20 33.07,20.911 29.92,22.344L37.815,30.239C38.518,30.083 39.249,30 40,30C45.523,30 50,34.477 50,40C50,40.75 49.917,41.482 49.76,42.185L59.278,51.702ZM54.393,55.302L46.602,47.511C44.84,49.06 42.53,50 40,50C34.477,50 30,45.523 30,40C30,37.47 30.939,35.159 32.489,33.398L24.51,25.42C19.364,28.925 15.226,33.388 12.706,36.448C11.413,38.019 10.766,38.804 10.766,40C10.766,41.196 11.413,41.981 12.706,43.552C17.44,49.3 27.881,60 40,60C45.215,60 50.12,58.018 54.393,55.302Z" clip-rule="evenodd" fill-rule="evenodd" fill="#33363F"/>
<path d="M19.495,3.838C17.933,2.276 15.4,2.276 13.838,3.838C12.276,5.4 12.276,7.933 13.838,9.495L19.495,3.838ZM67.172,62.828C68.734,64.39 71.266,64.39 72.828,62.828C74.39,61.266 74.39,58.734 72.828,57.172L67.172,62.828ZM13.838,9.495L67.172,62.828L72.828,57.172L19.495,3.838L13.838,9.495Z" fill="#33363F"/>
</svg>
